<?xml version="1.0" standalone="no"?>
<!DOCTYPE svg PUBLIC "-//W3C//DTD SVG 20010904//EN"
 "http://www.w3.org/TR/2001/REC-SVG-20010904/DTD/svg10.dtd">
<svg version="1.0" xmlns="http://www.w3.org/2000/svg"
 width="278.000000pt" height="220.000000pt" viewBox="0 0 278.000000 220.000000"
 preserveAspectRatio="xMidYMid meet">
<g transform="translate(0.000000,220.000000) scale(0.100000,-0.100000)" stroke="none">
<path d="M230 2189 c-83 -14 -176 -61 -200 -101 -20 -32 -20 -47 -20 -983 0
-1084 -8 -990 91 -1040 109 -56 81 -55 1415 -55 943 0 1233 3 1242 12 17 17
17 1879 0 1896 -9 9 -253 12 -1035 12 l-1023 0 0 60 c0 35 -7 74 -15 91 -19
36 -75 72 -146 94 -66 20 -234 28 -309 14z m315 -88 c95 -42 108 -75 48 -115
-108 -71 -371 -72 -475 -2 -54 36 -48 70 16 103 64 33 119 42 241 40 98 -3
129 -7 170 -26z m-370 -215 c60 -21 65 -21 1293 -24 l1232 -3 0 -194 0 -195
-390 0 -390 0 15 24 c15 23 21 24 133 25 64 1 120 5 125 10 4 4 6 68 5 142
l-3 134 -100 5 c-55 3 -120 3 -145 0 l-45 -5 -3 -128 c-2 -117 -5 -132 -27
-168 l-25 -39 -465 0 -465 0 -20 40 c-17 33 -20 59 -20 157 0 65 -4 124 -9
131 -6 10 -41 13 -141 13 -73 -1 -136 -4 -141 -7 -11 -7 -12 -271 -1 -278 5
-3 61 -6 124 -7 113 -1 116 -2 127 -26 l11 -24 -317 3 c-285 3 -323 5 -363 22
-91 39 -90 35 -90 244 0 171 1 184 18 177 9 -4 44 -17 77 -29z m635 -221 l0
-86 -82 3 -83 3 -3 68 c-5 98 -6 97 88 97 l80 0 0 -85z m1320 0 l0 -85 -80 0
-80 0 0 85 0 85 80 0 80 0 0 -85z m-1960 -239 c52 -20 76 -21 515 -24 l460 -3
-66 -23 c-185 -64 -344 -165 -558 -354 l-45 -39 60 -55 c194 -182 387 -299
604 -364 l75 -23 -463 0 c-500 -1 -562 4 -634 53 l-33 22 -3 423 c-2 401 -1
423 15 416 10 -5 43 -18 73 -29z m2530 -456 l0 -430 -572 1 -573 0 85 25 c115
34 254 101 370 179 97 65 280 218 280 235 0 13 -116 113 -226 196 -106 79
-236 151 -352 194 l-77 29 533 1 532 0 0 -430z m-1228 386 c239 -56 367 -317
265 -540 -64 -140 -232 -239 -381 -223 -139 14 -249 89 -311 211 -38 76 -40
82 -40 175 0 87 3 102 31 161 52 107 143 184 254 214 70 19 110 19 182 2z
m-1336 -846 c80 -30 197 -40 460 -40 l241 0 -5 -25 c-4 -25 -5 -25 -117 -25
-84 0 -115 -4 -124 -14 -8 -9 -11 -57 -9 -147 l3 -134 137 -3 c169 -3 161 -12
156 169 -1 71 0 129 3 129 3 0 11 11 17 25 l12 25 477 0 478 0 19 -33 c15 -27
18 -52 17 -160 -1 -86 2 -133 10 -143 15 -19 259 -20 277 -2 8 8 12 54 12 140
0 116 -2 128 -19 138 -11 5 -69 10 -130 10 l-111 0 0 25 0 25 380 0 380 0 0
-195 0 -195 -1243 2 c-1195 3 -1244 4 -1287 22 -91 39 -90 35 -90 243 0 101 1
183 3 183 1 0 25 -9 53 -20z m674 -244 l0 -84 -82 2 -83 1 -3 83 -4 82 86 0
86 0 0 -84z m1320 -1 l0 -86 -80 2 -80 2 0 83 0 84 80 0 80 0 0 -85z"/>
<path d="M305 2109 c-102 -6 -151 -26 -161 -64 -7 -29 6 -49 50 -73 25 -14 58
-17 161 -17 103 0 136 3 161 17 44 24 57 44 50 73 -13 50 -109 74 -261 64z
m145 -68 c46 -13 1 -25 -94 -25 -97 -1 -146 13 -91 25 40 9 154 9 185 0z"/>
<path d="M168 1810 c-22 -6 -23 -9 -26 -140 -1 -73 1 -137 6 -142 12 -12 262
-12 274 0 12 12 11 263 -1 275 -9 9 -218 15 -253 7z m202 -145 l0 -86 -82 3
-83 3 -3 68 c-5 98 -6 97 88 97 l80 0 0 -85z"/>
<path d="M1110 1810 l-85 -5 -3 -137 -3 -137 35 -16 c25 -12 40 -14 53 -7 10
6 59 11 108 11 60 0 91 5 97 13 10 16 10 249 0 264 -9 15 -92 20 -202 14z
m140 -145 l0 -85 -74 0 c-85 0 -86 0 -86 108 l0 62 80 0 80 0 0 -85z"/>
<path d="M1530 1810 l-65 -5 -3 -134 c-1 -74 1 -138 6 -143 4 -4 48 -8 98 -9
49 0 95 -5 101 -11 14 -11 72 7 85 26 10 14 10 248 0 263 -8 13 -127 20 -222
13z m160 -120 c0 -32 -5 -71 -12 -85 -10 -23 -16 -25 -80 -25 l-68 0 0 85 0
85 80 0 80 0 0 -60z"/>
<path d="M2374 1811 c-10 -2 -22 -8 -26 -15 -10 -15 -10 -248 1 -264 6 -10 42
-13 139 -13 73 0 136 2 142 6 6 4 10 60 10 141 0 105 -3 136 -14 140 -16 6
-224 11 -252 5z m196 -146 l0 -85 -80 0 -80 0 0 85 0 85 80 0 80 0 0 -85z"/>
<path d="M1370 1260 c-24 -6 -25 -10 -25 -75 0 -119 -57 -178 -168 -174 -73 3
-80 -3 -72 -60 25 -181 193 -288 370 -237 121 36 204 164 192 296 -6 67 -26
111 -76 163 -59 63 -159 102 -221 87z"/>
<path d="M1047 425 c-27 -34 -28 -35 -25 -167 l3 -133 134 -3 c90 -2 138 1
147 9 19 15 20 259 2 277 -7 7 -44 12 -98 12 -74 0 -87 3 -98 20 -17 28 -33
25 -65 -15z m203 -159 l0 -84 -80 -1 -80 -1 0 85 0 85 80 0 80 0 0 -84z"/>
<path d="M1663 440 c-5 -18 -14 -20 -88 -20 -46 0 -90 -3 -99 -6 -13 -5 -16
-27 -16 -138 0 -89 4 -136 12 -144 17 -17 259 -17 276 0 8 8 12 53 12 135 l0
124 -34 34 c-38 40 -56 44 -63 15z m25 -177 l3 -82 -81 0 -80 1 0 84 0 85 78
-3 77 -3 3 -82z"/>
<path d="M152 412 c-9 -7 -12 -43 -10 -148 l3 -139 134 -3 c74 -1 138 1 143 6
15 15 10 274 -5 284 -16 10 -248 10 -265 0z m216 -144 l-3 -83 -80 0 -80 0 -3
83 -4 82 87 0 86 0 -3 -82z"/>
<path d="M2358 409 c-16 -9 -18 -27 -18 -137 0 -86 4 -132 12 -140 17 -17 259
-17 276 0 17 17 17 259 0 276 -15 15 -245 16 -270 1z m212 -144 l0 -85 -80 0
-80 0 0 85 0 85 80 0 80 0 0 -85z"/>
</g>
</svg>
